<svg id="Layer_1" data-name="Layer 1" xmlns="http://www.w3.org/2000/svg" viewBox="0 0 569.72 91.1"><defs><style>.cls-1{fill:#2eb06e;}.cls-2{fill:#fcfcfc;}</style></defs><title>hmas-logo</title><path class="cls-1" d="M79.77,90.91H58.62V52.59H21.79V90.91H.63V.26H21.79V38.15H58.62V.26H79.77Z" transform="translate(-0.63 -0.26)"/><path class="cls-1" d="M143.45,54.39c.77,1.7,1.5,3.44,2.21,5.23.7-1.83,1.45-3.6,2.24-5.33s1.6-3.39,2.43-5L173.59,3.44a7.72,7.72,0,0,1,1.28-1.84,4.31,4.31,0,0,1,1.46-1,5,5,0,0,1,1.84-.31h18.45V90.91H178.07V38.78q0-3.8.38-8.22l-24,46.6a7.76,7.76,0,0,1-3,3.3,8.28,8.28,0,0,1-4.32,1.12h-2.86a8.34,8.34,0,0,1-4.33-1.12,7.81,7.81,0,0,1-3-3.3L112.75,30.5c.16,1.45.29,2.89.37,4.33s.12,2.74.12,4V90.91H94.7V.33h18.45A5,5,0,0,1,115,.64a4.41,4.41,0,0,1,1.46,1,7.71,7.71,0,0,1,1.27,1.84l23.33,46Q142.29,51.84,143.45,54.39Z" transform="translate(-0.63 -0.26)"/><path class="cls-2" d="M237.23,40.81H233a1.82,1.82,0,0,1-1.17-.36,2.19,2.19,0,0,1-.67-.93l-3.74-9.66h-18l-3.74,9.66a2.22,2.22,0,0,1-.67.9,1.8,1.8,0,0,1-1.18.39h-4.19l16-40h5.5ZM211,26H226L219.66,9.66a30.91,30.91,0,0,1-1.2-3.77c-.21.76-.41,1.46-.6,2.11s-.39,1.2-.57,1.69Z" transform="translate(-0.63 -0.26)"/><path class="cls-2" d="M269.34,32.54a1.15,1.15,0,0,1,.81.36l2.12,2.32a17.1,17.1,0,0,1-6,4.44,20.16,20.16,0,0,1-8.45,1.6,19.87,19.87,0,0,1-7.85-1.5,17,17,0,0,1-6-4.19,18.86,18.86,0,0,1-3.86-6.47,24.19,24.19,0,0,1-1.37-8.29,22.65,22.65,0,0,1,1.47-8.3A18.86,18.86,0,0,1,244.36,6a18.51,18.51,0,0,1,6.35-4.21A21.62,21.62,0,0,1,258.89.33,19.13,19.13,0,0,1,266.5,1.7a19.35,19.35,0,0,1,5.69,3.71L270.43,7.9a2,2,0,0,1-.45.46,1.25,1.25,0,0,1-.73.18,1.41,1.41,0,0,1-.77-.27c-.27-.17-.59-.39-1-.65s-.81-.54-1.31-.84a11.55,11.55,0,0,0-1.79-.84,14.25,14.25,0,0,0-2.4-.65A16.55,16.55,0,0,0,258.86,5,15.35,15.35,0,0,0,253,6.12a13.29,13.29,0,0,0-4.6,3.15,14.21,14.21,0,0,0-3,5,18.94,18.94,0,0,0-1.08,6.57,19.2,19.2,0,0,0,1.08,6.67,14.56,14.56,0,0,0,2.93,5,12.46,12.46,0,0,0,4.4,3.09,14,14,0,0,0,5.48,1.06,22.17,22.17,0,0,0,3.21-.21,13.78,13.78,0,0,0,2.64-.65,10.88,10.88,0,0,0,2.26-1.14A16.65,16.65,0,0,0,268.41,33,1.44,1.44,0,0,1,269.34,32.54Z" transform="translate(-0.63 -0.26)"/><path class="cls-2" d="M307.61,32.54a1.12,1.12,0,0,1,.81.36l2.13,2.32a17.1,17.1,0,0,1-6,4.44,20.19,20.19,0,0,1-8.45,1.6,19.83,19.83,0,0,1-7.85-1.5,17.09,17.09,0,0,1-6-4.19,18.84,18.84,0,0,1-3.85-6.47,24,24,0,0,1-1.37-8.29,22.86,22.86,0,0,1,1.46-8.3A18.86,18.86,0,0,1,282.63,6,18.46,18.46,0,0,1,289,1.82,21.56,21.56,0,0,1,297.16.33a18.25,18.25,0,0,1,13.3,5.08L308.7,7.9a2.15,2.15,0,0,1-.44.46,1.27,1.27,0,0,1-.73.18,1.41,1.41,0,0,1-.77-.27c-.27-.17-.59-.39-1-.65s-.81-.54-1.32-.84a11.13,11.13,0,0,0-1.79-.84,14,14,0,0,0-2.4-.65A16.4,16.4,0,0,0,297.13,5a15.35,15.35,0,0,0-5.88,1.1,13.16,13.16,0,0,0-4.59,3.15,14.23,14.23,0,0,0-3,5,19.18,19.18,0,0,0-1.07,6.57,19.44,19.44,0,0,0,1.07,6.67,14.74,14.74,0,0,0,2.94,5,12.37,12.37,0,0,0,4.4,3.09,14,14,0,0,0,5.47,1.06,22.21,22.21,0,0,0,3.22-.21,13.78,13.78,0,0,0,2.64-.65,11.14,11.14,0,0,0,2.26-1.14A17.39,17.39,0,0,0,306.69,33,1.42,1.42,0,0,1,307.61,32.54Z" transform="translate(-0.63 -0.26)"/><path class="cls-2" d="M354.86,20.81a23.05,23.05,0,0,1-1.43,8.25,18.93,18.93,0,0,1-4,6.47,17.75,17.75,0,0,1-6.25,4.2,22.35,22.35,0,0,1-16.1,0,17.86,17.86,0,0,1-6.23-4.2,18.8,18.8,0,0,1-4-6.47,23,23,0,0,1-1.42-8.25,23.14,23.14,0,0,1,1.42-8.26,18.94,18.94,0,0,1,4-6.48,17.93,17.93,0,0,1,6.23-4.23,22.21,22.21,0,0,1,16.1,0,17.83,17.83,0,0,1,6.25,4.23,19.07,19.07,0,0,1,4,6.48A23.15,23.15,0,0,1,354.86,20.81Zm-5.56,0a20.42,20.42,0,0,0-1-6.63,14,14,0,0,0-2.85-4.95A12.32,12.32,0,0,0,341,6.11a16.27,16.27,0,0,0-11.71,0,12.44,12.44,0,0,0-4.48,3.12,13.86,13.86,0,0,0-2.86,4.95,20.42,20.42,0,0,0-1,6.63,20.19,20.19,0,0,0,1,6.6,13.86,13.86,0,0,0,2.86,4.95,12.39,12.39,0,0,0,4.48,3.1,16.41,16.41,0,0,0,11.71,0,12.27,12.27,0,0,0,4.47-3.1,14,14,0,0,0,2.85-4.95A20.19,20.19,0,0,0,349.3,20.81Z" transform="translate(-0.63 -0.26)"/><path class="cls-2" d="M377.82,36.51a11.13,11.13,0,0,0,4.44-.84,9.33,9.33,0,0,0,3.32-2.35,10.13,10.13,0,0,0,2.06-3.6,14.15,14.15,0,0,0,.72-4.61V.77h5.39V25.11a18.11,18.11,0,0,1-1.11,6.42,14.74,14.74,0,0,1-3.15,5.13,14.48,14.48,0,0,1-5,3.4,18.59,18.59,0,0,1-13.3,0,14.42,14.42,0,0,1-8.2-8.53,18.34,18.34,0,0,1-1.1-6.42V.77h5.39V25.08a14.38,14.38,0,0,0,.71,4.61,10.3,10.3,0,0,0,2.07,3.6,9.36,9.36,0,0,0,3.33,2.37A11.21,11.21,0,0,0,377.82,36.51Z" transform="translate(-0.63 -0.26)"/><path class="cls-2" d="M406.92,1a2.72,2.72,0,0,1,.8.74l23.19,30.17q-.09-.72-.12-1.41c0-.46,0-.9,0-1.33V.77h4.75v40h-2.74a2.34,2.34,0,0,1-1.08-.22,2.67,2.67,0,0,1-.85-.76L407.69,9.69c0,.46.06.92.08,1.37s0,.85,0,1.22V40.81h-4.75V.77h2.79A2.29,2.29,0,0,1,406.92,1Z" transform="translate(-0.63 -0.26)"/><path class="cls-2" d="M472.56.77V5.33H459.63V40.81h-5.42V5.33h-13V.77Z" transform="translate(-0.63 -0.26)"/><path class="cls-2" d="M484.69,40.81h-5.42V.77h5.42Z" transform="translate(-0.63 -0.26)"/><path class="cls-2" d="M499.29,1a2.71,2.71,0,0,1,.79.74l23.19,30.17c0-.48-.09-.95-.11-1.41s0-.9,0-1.33V.77h4.75v40h-2.74a2.32,2.32,0,0,1-1.07-.22,2.67,2.67,0,0,1-.85-.76L500.05,9.69c0,.46.07.92.09,1.37s0,.85,0,1.22V40.81h-4.75V.77h2.79A2.35,2.35,0,0,1,499.29,1Z" transform="translate(-0.63 -0.26)"/><path class="cls-2" d="M555.51,36.87a27.21,27.21,0,0,0,3-.15,21.59,21.59,0,0,0,2.56-.46,18.13,18.13,0,0,0,2.26-.74,22.51,22.51,0,0,0,2.12-1V25.69h-6.2a1.19,1.19,0,0,1-.85-.3,1,1,0,0,1-.32-.76V21.56h12.29V36.93a23,23,0,0,1-3.14,1.9,21.17,21.17,0,0,1-3.5,1.35,25.93,25.93,0,0,1-4,.81,36.56,36.56,0,0,1-4.61.27,20.75,20.75,0,0,1-8-1.5,18.28,18.28,0,0,1-6.26-4.19,19,19,0,0,1-4.09-6.47,22.63,22.63,0,0,1-1.47-8.29,23.29,23.29,0,0,1,1.44-8.36A17.94,17.94,0,0,1,547.31,1.81,23.08,23.08,0,0,1,555.79.33a25.47,25.47,0,0,1,4.42.35,20.08,20.08,0,0,1,3.78,1,18,18,0,0,1,3.23,1.59A20.44,20.44,0,0,1,570,5.38l-1.54,2.46a1.41,1.41,0,0,1-1.23.76,2.06,2.06,0,0,1-1-.31c-.46-.26-1-.58-1.56-.95a14.18,14.18,0,0,0-2.11-1.08,18.18,18.18,0,0,0-2.94-.88,19.38,19.38,0,0,0-4-.36,16.31,16.31,0,0,0-6.12,1.1,13,13,0,0,0-4.67,3.16,14.11,14.11,0,0,0-3,5,19.59,19.59,0,0,0-1,6.56,19.75,19.75,0,0,0,1.08,6.77,14.35,14.35,0,0,0,3,5,13,13,0,0,0,4.64,3.16A15.52,15.52,0,0,0,555.51,36.87Z" transform="translate(-0.63 -0.26)"/><path class="cls-2" d="M224.8,57.14a2,2,0,0,1-.53.62,1.19,1.19,0,0,1-.73.21,1.91,1.91,0,0,1-1.1-.47,16.9,16.9,0,0,0-1.59-1,13.68,13.68,0,0,0-2.32-1.05,10.16,10.16,0,0,0-3.28-.47,9.6,9.6,0,0,0-3.22.49,6.68,6.68,0,0,0-2.33,1.33,5.46,5.46,0,0,0-1.41,2,6.22,6.22,0,0,0-.48,2.45,4.52,4.52,0,0,0,.83,2.78,7.23,7.23,0,0,0,2.18,1.89,16.7,16.7,0,0,0,3.07,1.35l3.52,1.19c1.2.41,2.38.87,3.52,1.38A12.22,12.22,0,0,1,224,71.69a8.72,8.72,0,0,1,2.18,2.88,9.57,9.57,0,0,1,.83,4.19,13.41,13.41,0,0,1-.9,4.93,11.14,11.14,0,0,1-2.61,4,12.06,12.06,0,0,1-4.22,2.68,15.31,15.31,0,0,1-5.68,1A17.43,17.43,0,0,1,206.51,90a16.65,16.65,0,0,1-5.46-3.81l1.57-2.57a2.05,2.05,0,0,1,.54-.52,1.28,1.28,0,0,1,.71-.21,2.24,2.24,0,0,1,1.35.63,21.6,21.6,0,0,0,1.88,1.38,14.27,14.27,0,0,0,2.74,1.38,10.77,10.77,0,0,0,3.92.63,10.15,10.15,0,0,0,3.44-.53,7.26,7.26,0,0,0,2.56-1.49,6.36,6.36,0,0,0,1.6-2.31,7.55,7.55,0,0,0,.56-3,5,5,0,0,0-.82-3,6.8,6.8,0,0,0-2.17-1.94,14.32,14.32,0,0,0-3.06-1.33l-3.52-1.12a33.91,33.91,0,0,1-3.52-1.33,11.56,11.56,0,0,1-3.06-1.95,9,9,0,0,1-2.16-3A11,11,0,0,1,206,53.81a11.67,11.67,0,0,1,3.87-2.46,14.23,14.23,0,0,1,5.29-.92,16.87,16.87,0,0,1,6.12,1.06,14,14,0,0,1,4.83,3.08Z" transform="translate(-0.63 -0.26)"/><path class="cls-2" d="M258.58,50.88v4.41H239.36v13.3h15.56v4.25H239.36V86.5h19.22v4.41H233.91v-40Z" transform="translate(-0.63 -0.26)"/><path class="cls-2" d="M272.32,74.21v16.7h-5.39v-40h11.32a24.35,24.35,0,0,1,6.56.77,12.42,12.42,0,0,1,4.57,2.22,9,9,0,0,1,2.67,3.5,12.36,12.36,0,0,1,.2,8.57,10.52,10.52,0,0,1-1.95,3.31,11.47,11.47,0,0,1-3.1,2.5,15.15,15.15,0,0,1-4.15,1.56A5.67,5.67,0,0,1,284.84,75l11.68,15.89h-4.81a2.36,2.36,0,0,1-2.17-1.14l-10.4-14.31a3.18,3.18,0,0,0-1-1,3.67,3.67,0,0,0-1.68-.29Zm0-3.94H278a13.51,13.51,0,0,0,4.17-.58,8.47,8.47,0,0,0,3-1.62,6.65,6.65,0,0,0,1.83-2.5,8.13,8.13,0,0,0,.62-3.21A6.37,6.37,0,0,0,285.27,57q-2.36-1.81-7-1.82h-5.93Z" transform="translate(-0.63 -0.26)"/><path class="cls-2" d="M297.72,50.88h4.33a1.83,1.83,0,0,1,1.18.36,2.31,2.31,0,0,1,.67.92l11.31,28.25a18.51,18.51,0,0,1,.71,2.07c.22.74.43,1.52.63,2.32.17-.8.35-1.58.55-2.32a15.23,15.23,0,0,1,.68-2.07L329,52.16a2.35,2.35,0,0,1,.67-.88,1.75,1.75,0,0,1,1.17-.4h4.36l-16.31,40H314Z" transform="translate(-0.63 -0.26)"/><path class="cls-2" d="M346.78,90.91h-5.42v-40h5.42Z" transform="translate(-0.63 -0.26)"/><path class="cls-2" d="M385.73,82.64a1.13,1.13,0,0,1,.81.37l2.12,2.32a17.16,17.16,0,0,1-6,4.44,20.39,20.39,0,0,1-8.45,1.59,20.06,20.06,0,0,1-7.86-1.49,17.41,17.41,0,0,1-6-4.19,19,19,0,0,1-3.86-6.47,24.25,24.25,0,0,1-1.37-8.3,22.69,22.69,0,0,1,1.47-8.3,19,19,0,0,1,4.12-6.48,18.29,18.29,0,0,1,6.36-4.2,21.53,21.53,0,0,1,8.17-1.5,19.3,19.3,0,0,1,7.61,1.37,19.05,19.05,0,0,1,5.69,3.72L386.82,58a1.79,1.79,0,0,1-.45.46,1.25,1.25,0,0,1-.73.18,1.36,1.36,0,0,1-.76-.26l-1-.66c-.37-.26-.81-.54-1.31-.84a12.09,12.09,0,0,0-1.79-.83,15.22,15.22,0,0,0-2.4-.66,16.48,16.48,0,0,0-3.16-.27,15.17,15.17,0,0,0-5.88,1.11,13.13,13.13,0,0,0-4.6,3.14,14.46,14.46,0,0,0-3,5,18.94,18.94,0,0,0-1.08,6.57,19.26,19.26,0,0,0,1.08,6.68,15,15,0,0,0,2.93,5,12.31,12.31,0,0,0,4.4,3.08,14.09,14.09,0,0,0,5.48,1.07,22.17,22.17,0,0,0,3.21-.21,13.07,13.07,0,0,0,2.64-.66,11.73,11.73,0,0,0,2.27-1.13,17.51,17.51,0,0,0,2.11-1.64A1.4,1.4,0,0,1,385.73,82.64Z" transform="translate(-0.63 -0.26)"/><path class="cls-2" d="M420.46,50.88v4.41H401.23v13.3H416.8v4.25H401.23V86.5h19.23v4.41H395.79v-40Z" transform="translate(-0.63 -0.26)"/><path class="cls-2" d="M448.76,57.14a2.11,2.11,0,0,1-.53.62,1.19,1.19,0,0,1-.73.21,1.89,1.89,0,0,1-1.1-.47,16.9,16.9,0,0,0-1.59-1,13.68,13.68,0,0,0-2.32-1.05,10.22,10.22,0,0,0-3.29-.47,9.58,9.58,0,0,0-3.21.49,6.68,6.68,0,0,0-2.33,1.33,5.23,5.23,0,0,0-1.41,2,6.22,6.22,0,0,0-.48,2.45,4.52,4.52,0,0,0,.83,2.78,7.12,7.12,0,0,0,2.18,1.89,16.41,16.41,0,0,0,3.07,1.35l3.52,1.19c1.2.41,2.37.87,3.52,1.38A12.4,12.4,0,0,1,448,71.69a8.72,8.72,0,0,1,2.18,2.88,9.57,9.57,0,0,1,.83,4.19,13.41,13.41,0,0,1-.9,4.93,11.27,11.27,0,0,1-2.61,4,12.15,12.15,0,0,1-4.22,2.68,15.36,15.36,0,0,1-5.69,1A17.41,17.41,0,0,1,430.47,90,16.65,16.65,0,0,1,425,86.14l1.56-2.57a2.09,2.09,0,0,1,.55-.52,1.26,1.26,0,0,1,.71-.21,2.21,2.21,0,0,1,1.34.63,21.92,21.92,0,0,0,1.89,1.38,14,14,0,0,0,2.74,1.38,10.77,10.77,0,0,0,3.92.63,10.19,10.19,0,0,0,3.44-.53,7.35,7.35,0,0,0,2.56-1.49,6.48,6.48,0,0,0,1.6-2.31,7.73,7.73,0,0,0,.56-3,5,5,0,0,0-.82-3,6.8,6.8,0,0,0-2.17-1.94,14.32,14.32,0,0,0-3.06-1.33l-3.52-1.12a33.91,33.91,0,0,1-3.52-1.33,11.56,11.56,0,0,1-3.06-1.95,9,9,0,0,1-2.16-3A11,11,0,0,1,430,53.81a11.73,11.73,0,0,1,3.86-2.46,14.32,14.32,0,0,1,5.3-.92,17,17,0,0,1,6.12,1.06,14,14,0,0,1,4.83,3.08Z" transform="translate(-0.63 -0.26)"/></svg>